<svg xmlns="http://www.w3.org/2000/svg" xmlns:xlink="http://www.w3.org/1999/xlink" width="640" height="640" preserveAspectRatio="xMidYMid meet" version="1.1" viewBox="0 0 640 640"><defs><path id="cFGcihxZe" d="M424.45 96.85C427.93 116.39 426.47 136.82 418.39 155.9C410.31 174.99 395.6 192.61 377.3 198.22C359 203.84 337.23 197.33 316.79 189.13C296.36 180.94 277.17 170.95 265.6 154.67C254.04 138.5 250.11 116.05 252.58 93.37C255.05 70.7 263.92 47.91 280.31 34.21C296.7 20.52 320.61 15.8 342.61 18.27C364.5 20.74 384.26 30.4 398.41 44.54C412.55 58.68 420.97 77.32 424.45 96.85Z"/><path id="aBcMMy8kJ" d="M401.77 245.06C353.66 245.06 311.08 218.23 311.08 185.55C311.08 152.86 353.66 114.3 401.77 114.3C450.05 114.3 504.03 152.86 504.03 185.55C504.03 218.23 450.05 245.06 401.77 245.06Z"/><path id="b5POq8xyw8" d="M372.1 373.37C366.72 362.34 363.87 350.08 363.87 337.68C363.87 325.01 363.87 261.7 363.87 147.74L320.09 147.74L276.16 147.74C276.16 261.7 276.16 325.01 276.16 337.68C276.16 350.08 273.31 362.34 267.92 373.37C256.76 395.44 167.46 572.02 156.29 594.09C147.95 611.25 160.47 631.16 179.48 631.16C188.85 631.16 235.72 631.16 320.09 631.16C404.37 631.16 451.19 631.16 460.55 631.16C479.72 631.32 492.13 611.31 483.73 594.09C461.41 549.95 383.27 395.44 372.1 373.37Z"/><path id="duJR2YPVG" d="M179.48 635.23C169.18 635.23 159.73 630 154.23 621.34C148.69 612.63 148.27 601.91 152.7 592.61C163.87 570.54 253.17 393.96 264.33 371.89C269.4 361.44 272.09 349.61 272.09 337.99C272.09 325.05 272.09 260.33 272.09 143.83L367.72 143.83C367.72 260.14 367.72 324.75 367.72 337.68C367.72 349.35 370.41 361.12 375.64 371.73C386.81 393.79 476.11 570.24 487.27 592.3C491.76 601.54 491.28 612.31 485.79 621.13C480.3 630 470.9 635.23 460.55 635.23C404.34 635.23 207.58 635.23 179.48 635.23ZM280.07 337.78C280.07 350.61 277.06 363.66 271.41 375.17C260.24 397.24 170.94 573.82 159.78 595.89C156.51 602.59 156.93 610.51 160.99 617.11C165.01 623.56 171.92 627.41 179.53 627.41C207.64 627.41 432.5 627.41 460.6 627.41C468.21 627.41 475.13 623.5 479.14 617.11C483.15 610.67 483.63 602.75 480.19 595.89C469.03 573.83 379.68 397.38 368.51 375.33C362.81 363.66 359.85 350.67 359.85 337.83C359.85 325.43 359.85 263.4 359.85 151.75L280.07 151.75C280.07 263.37 280.07 325.38 280.07 337.78Z"/><path id="b24uShYtDi" d="M401.67 457.7L238.35 457.7C195.39 542.67 171.52 589.88 166.75 599.32C164.64 603.81 164.8 608.72 167.49 612.94C170.18 617.11 174.51 619.54 179.42 619.54C207.53 619.54 432.39 619.54 460.5 619.54C465.41 619.54 469.74 617.17 472.43 612.94C475.23 608.77 475.49 603.81 473.28 599.32C463.73 580.44 439.86 533.23 401.67 457.7Z"/><path id="hpD9Z6J1S" d="M273.94 130.26C264.23 130.26 256.31 138.18 256.31 147.9C256.31 147.9 256.31 147.9 256.31 147.9C256.31 157.61 264.23 165.53 273.94 165.53C283.16 165.53 356.92 165.53 366.14 165.53C375.85 165.53 383.77 157.61 383.77 147.9C383.77 147.9 383.77 147.9 383.77 147.9C383.77 138.02 375.85 130.26 366.14 130.26C347.7 130.26 283.16 130.26 273.94 130.26Z"/><path id="o3lkri4r6" d="M273.94 169.23C262.11 169.23 252.4 159.67 252.4 147.69C252.4 135.7 261.96 126.2 273.94 126.2C283.16 126.2 356.92 126.2 366.14 126.2C377.97 126.2 387.68 135.75 387.68 147.74C387.68 159.73 377.91 169.23 366.14 169.23C347.7 169.23 283.16 169.23 273.94 169.23ZM260.21 147.85C260.21 155.45 266.34 161.57 273.94 161.57C283.16 161.57 356.92 161.57 366.14 161.57C373.64 161.57 379.87 155.45 379.87 147.85C379.87 140.24 373.74 134.12 366.14 134.12C359.99 134.12 329.26 134.12 273.94 134.12C264.79 138.2 260.21 142.78 260.21 147.85Z"/><path id="b4Oelv6OcH" d="M295.17 398.03C284.85 398.03 276.48 406.4 276.48 416.72C276.48 427.05 284.85 435.42 295.17 435.42C305.49 435.42 313.86 427.05 313.86 416.72C313.86 406.4 305.49 398.03 295.17 398.03Z"/><path id="a2jbBkhi15" d="M350.3 473.54C344.11 473.54 339.1 478.55 339.1 484.74C339.1 490.92 344.11 495.93 350.3 495.93C356.48 495.93 361.49 490.92 361.49 484.74C361.49 478.55 356.48 473.54 350.3 473.54Z"/><path id="a1biuxzWMn" d="M390.64 495.93C384.86 495.93 380.18 500.61 380.18 506.38C380.18 512.16 384.86 516.84 390.64 516.84C396.41 516.84 401.09 512.16 401.09 506.38C401.09 500.61 396.41 495.93 390.64 495.93Z"/><path id="a1olEKm5" d="M281.55 484.74C267.52 484.74 256.15 496.11 256.15 510.13C256.15 524.16 267.52 535.53 281.55 535.53C295.57 535.53 306.94 524.16 306.94 510.13C306.94 496.11 295.57 484.74 281.55 484.74Z"/><path id="a20CGJjNyI" d="M336.09 510.29C331.22 510.29 327.27 514.24 327.27 519.11C327.27 523.98 331.22 527.93 336.09 527.93C340.96 527.93 344.91 523.98 344.91 519.11C344.91 514.24 340.96 510.29 336.09 510.29Z"/><path id="aCw4SMJ4w" d="M333.08 426.76C329.79 426.76 327.12 429.43 327.12 432.72C327.12 436.02 329.79 438.69 333.08 438.69C336.38 438.69 339.05 436.02 339.05 432.72C339.05 429.43 336.38 426.76 333.08 426.76Z"/><path id="f40egjxnWw" d="M319.42 97.16C315.19 112.11 290.07 125.09 278.22 146.12C266.37 167 267.92 195.78 254.66 213.56C241.26 231.34 213.04 238.11 187.78 231.2C162.52 224.43 140.09 204.11 129.79 179.84C119.35 155.57 121.04 127.49 131.2 106.33C141.36 85.16 160.13 70.91 178.19 65.27C196.25 59.77 213.6 62.73 231.94 61.32C250.43 59.91 270.04 54.12 288.38 59.63C306.58 65.27 323.51 82.2 319.42 97.16Z"/><path id="cvu6zP9jz" d="M238.7 457.43C241.34 455.97 242.81 455.16 243.1 454.99C247.51 452.51 256.33 447.71 265.15 447.06C273.97 446.45 282.78 450.11 291.6 453.77C300.42 457.43 309.24 461.09 318.05 459.26C326.87 457.43 335.69 450.11 344.51 450.72C353.32 451.37 362.14 459.83 370.96 462.92C379.78 466.01 388.6 463.49 393 462.31C393.3 462.23 394.77 461.82 397.41 461.09L397.41 468.41C394.77 468.41 393.3 468.41 393 468.41C388.6 468.41 379.78 468.41 370.96 468.41C362.14 468.41 353.32 468.41 344.51 468.41C335.69 468.41 326.87 468.41 318.05 468.41C309.24 468.41 300.42 468.41 291.6 468.41C282.78 468.41 273.97 468.41 265.15 468.41C256.33 468.41 247.51 468.41 243.1 468.41C242.81 468.41 241.34 468.41 238.7 468.41L238.7 457.43Z"/></defs><g><g><g><use fill="#f8e08c" fill-opacity="1" opacity="1" xlink:href="#cFGcihxZe"/><g><use fill-opacity="0" stroke="#000" stroke-opacity="0" stroke-width="1" opacity="1" xlink:href="#cFGcihxZe"/></g></g><g><use fill="#d0e2ff" fill-opacity="1" opacity="1" xlink:href="#aBcMMy8kJ"/><g><use fill-opacity="0" stroke="#000" stroke-opacity="0" stroke-width="1" opacity="1" xlink:href="#aBcMMy8kJ"/></g></g><g><use fill="#e7f6fd" fill-opacity="1" opacity="1" xlink:href="#b5POq8xyw8"/><g><use fill-opacity="0" stroke="#000" stroke-opacity="0" stroke-width="1" opacity="1" xlink:href="#b5POq8xyw8"/></g></g><g><use fill="#1f2937" fill-opacity="1" opacity="1" xlink:href="#duJR2YPVG"/><g><use fill-opacity="0" stroke="#000" stroke-opacity="0" stroke-width="1" opacity="1" xlink:href="#duJR2YPVG"/></g></g><g><use fill="#ceaffd" fill-opacity="1" opacity="1" xlink:href="#b24uShYtDi"/><g><use fill-opacity="0" stroke="#000" stroke-opacity="0" stroke-width="1" opacity="1" xlink:href="#b24uShYtDi"/></g></g><g><use fill="#e7f6fd" fill-opacity="1" opacity="1" xlink:href="#hpD9Z6J1S"/><g><use fill-opacity="0" stroke="#000" stroke-opacity="0" stroke-width="1" opacity="1" xlink:href="#hpD9Z6J1S"/></g></g><g><use fill="#1f2937" fill-opacity="1" opacity="1" xlink:href="#o3lkri4r6"/><g><use fill-opacity="0" stroke="#000" stroke-opacity="0" stroke-width="1" opacity="1" xlink:href="#o3lkri4r6"/></g></g><g><use fill="#fff" fill-opacity="1" opacity="1" xlink:href="#b4Oelv6OcH"/><g><use fill-opacity="0" stroke="#000" stroke-opacity="0" stroke-width="1" opacity="1" xlink:href="#b4Oelv6OcH"/></g></g><g><use fill="#fff" fill-opacity="1" opacity="1" xlink:href="#a2jbBkhi15"/><g><use fill-opacity="0" stroke="#000" stroke-opacity="0" stroke-width="1" opacity="1" xlink:href="#a2jbBkhi15"/></g></g><g><use fill="#fff" fill-opacity="1" opacity="1" xlink:href="#a1biuxzWMn"/><g><use fill-opacity="0" stroke="#000" stroke-opacity="0" stroke-width="1" opacity="1" xlink:href="#a1biuxzWMn"/></g></g><g><use fill="#fff" fill-opacity="1" opacity="1" xlink:href="#a1olEKm5"/><g><use fill-opacity="0" stroke="#000" stroke-opacity="0" stroke-width="1" opacity="1" xlink:href="#a1olEKm5"/></g></g><g><use fill="#fff" fill-opacity="1" opacity="1" xlink:href="#a20CGJjNyI"/><g><use fill-opacity="0" stroke="#000" stroke-opacity="0" stroke-width="1" opacity="1" xlink:href="#a20CGJjNyI"/></g></g><g><use fill="#fff" fill-opacity="1" opacity="1" xlink:href="#aCw4SMJ4w"/><g><use fill-opacity="0" stroke="#000" stroke-opacity="0" stroke-width="1" opacity="1" xlink:href="#aCw4SMJ4w"/></g></g><g><use fill="#ff998b" fill-opacity="1" opacity="1" xlink:href="#f40egjxnWw"/><g><use fill-opacity="0" stroke="#000" stroke-opacity="0" stroke-width="1" opacity="1" xlink:href="#f40egjxnWw"/></g></g><g><use fill="#ceaffd" fill-opacity="1" opacity="1" xlink:href="#cvu6zP9jz"/><g><use fill-opacity="0" stroke="#000" stroke-opacity="0" stroke-width="1" opacity="1" xlink:href="#cvu6zP9jz"/></g></g></g></g></svg>