<?xml version="1.0" encoding="iso-8859-1"?>
<!-- Generator: Adobe Illustrator 19.0.0, SVG Export Plug-In . SVG Version: 6.00 Build 0)  -->
<svg version="1.1" id="Capa_1" xmlns="http://www.w3.org/2000/svg" xmlns:xlink="http://www.w3.org/1999/xlink" x="0px" y="0px"
	 viewBox="0 0 511.634 511.634" style="enable-background:new 0 0 511.634 511.634;" xml:space="preserve">
<g style="opacity:0.5;">
	<path style="fill:#FFCE54;" d="M471.663,267.806c0,119.243-96.603,215.847-215.846,215.847S39.971,387.049,39.971,267.806
		c0-119.239,96.603-215.842,215.846-215.842S471.663,148.567,471.663,267.806z"/>
</g>
<g style="opacity:0.4;">
	<path style="fill:#FFCE54;" d="M443.683,267.806c0,103.708-84.089,187.866-187.866,187.866
		c-103.778,0-187.866-84.158-187.866-187.866c0-103.699,84.088-187.862,187.866-187.862
		C359.594,79.944,443.683,164.107,443.683,267.806z"/>
</g>
<g style="opacity:0.6;">
	<path style="fill:#FFCE54;" d="M415.703,267.806c0,88.234-71.551,159.886-159.886,159.886
		c-88.336,0-159.886-71.651-159.886-159.886c0-88.226,71.55-159.882,159.886-159.882
		C344.152,107.924,415.703,179.581,415.703,267.806z"/>
</g>
<polygon style="fill:#AAB2BD;" points="323.768,463.667 307.78,479.655 203.854,479.655 187.865,463.667 187.865,407.707 
	323.768,407.707 "/>
<g style="opacity:0.4;">
	<polygon style="fill:#FFFFFF;" points="203.854,407.707 187.865,407.707 187.865,463.667 203.854,479.655 219.842,479.655 
		203.854,463.667 	"/>
</g>
<g style="opacity:0.3;">
	<polygon points="307.78,407.707 323.768,407.707 323.768,463.667 307.78,479.655 291.791,479.655 307.78,463.667 	"/>
</g>
<path style="fill:#E6E9ED;" d="M387.722,267.806c0-72.85-59.059-131.906-131.905-131.906s-131.906,59.056-131.906,131.906
	c0,47.966,25.677,89.812,63.954,112.904v26.996h135.903V380.71C362.046,357.618,387.722,315.772,387.722,267.806z"/>
<g>
	<path style="fill:#FFFFFF;" d="M255.817,135.9c2.701,0,5.348,0.223,8.002,0.402C194.712,140.455,139.9,197.653,139.9,267.806
		c0,71.168,47.965,112.904,47.965,112.904c-38.277-23.093-63.954-64.938-63.954-112.904C123.911,194.956,182.97,135.9,255.817,135.9
		z"/>
	<path style="fill:#FFFFFF;" d="M255.825,135.9c-2.701,0-5.348,0.223-8.002,0.402c69.107,4.153,123.919,61.351,123.919,131.504
		c0,71.168-47.966,112.904-47.966,112.904c38.277-23.093,63.954-64.938,63.954-112.904C387.73,194.956,328.671,135.9,255.825,135.9z
		"/>
</g>
<path style="fill:#656D78;" d="M219.842,479.655c0,0,7.994,15.989,35.975,15.989c27.979,0,35.974-15.989,35.974-15.989H219.842z"/>
<g style="opacity:0.4;">
	<path style="fill:#FFFFFF;" d="M235.831,479.655h-15.988c0,0,7.994,15.989,35.975,15.989c2.888,0,5.52-0.203,7.994-0.516
		C242.311,492.474,235.831,479.655,235.831,479.655z"/>
</g>
<g style="opacity:0.3;">
	<path d="M275.802,479.655h15.988c0,0-7.994,15.989-35.974,15.989c-2.889,0-5.52-0.203-7.995-0.516
		C269.323,492.474,275.802,479.655,275.802,479.655z"/>
</g>
<g style="opacity:0.2;">
	<rect x="187.867" y="399.717" width="135.9" height="7.994"/>
</g>
<circle style="fill:#ED5565;" cx="255.827" cy="267.807" r="83.94"/>
<g style="opacity:0.4;">
	<path style="fill:#FFFFFF;" d="M187.873,267.806c0-43.66,33.344-79.502,75.946-83.534c-2.631-0.246-5.293-0.402-7.994-0.402
		c-46.358,0-83.94,37.579-83.94,83.936s37.583,83.94,83.94,83.94c2.701,0,5.363-0.156,7.994-0.406
		C221.216,347.312,187.873,311.463,187.873,267.806z"/>
</g>
<g style="opacity:0.2;">
	<path d="M323.768,267.806c0-43.66-33.343-79.502-75.946-83.534c2.631-0.246,5.293-0.402,7.995-0.402
		c46.357,0,83.939,37.579,83.939,83.936s-37.582,83.941-83.939,83.941c-2.701,0-5.364-0.156-7.995-0.406
		C290.425,347.312,323.768,311.463,323.768,267.806z"/>
</g>
<path style="fill:#FFCE54;" d="M311.785,267.806c0,30.899-25.053,55.96-55.96,55.96c-30.9,0-55.96-25.061-55.96-55.96
	s25.06-55.956,55.96-55.956C286.732,211.85,311.785,236.907,311.785,267.806z"/>
<path style="fill:#ED5565;" d="M283.804,267.806c0,15.442-12.521,27.98-27.979,27.98c-15.45,0-27.98-12.538-27.98-27.98
	c0-15.446,12.53-27.976,27.98-27.976C271.283,239.831,283.804,252.36,283.804,267.806z"/>
<g>
	<polygon style="fill:#656D78;" points="424.291,76.705 384.74,116.255 384.732,138.879 427.663,95.941 	"/>
	<polygon style="fill:#656D78;" points="446.93,99.317 407.38,138.867 384.755,138.875 427.694,95.945 	"/>
</g>
<g>
	<path style="fill:#3A3847;" d="M255.817,355.791c-23.452,0-45.53-9.165-62.175-25.81c-16.637-16.645-25.802-38.723-25.81-62.175
		c0-23.452,9.165-45.538,25.81-62.178c28.972-28.976,73.486-34.237,108.259-12.769c1.874,1.159,2.459,3.622,1.296,5.5
		c-1.155,1.874-3.614,2.459-5.496,1.3c-31.603-19.494-72.065-14.728-98.406,11.621c-15.13,15.134-23.468,35.209-23.468,56.526
		c0.008,21.313,8.338,41.393,23.468,56.522c15.138,15.13,35.209,23.468,56.522,23.468c0.008,0,0.008,0,0.008,0
		c21.32,0,41.392-8.338,56.529-23.468c26.349-26.341,31.118-66.796,11.609-98.395c-1.155-1.878-0.578-4.341,1.304-5.5
		c1.881-1.163,4.341-0.582,5.496,1.3c21.469,34.768,16.223,79.283-12.757,108.247c-16.644,16.645-38.729,25.81-62.182,25.81
		C255.825,355.791,255.825,355.791,255.817,355.791z"/>
	<path style="fill:#3A3847;" d="M255.825,327.702c-15.349,0-30.689-5.84-42.368-17.52c-23.358-23.374-23.358-61.39,0-84.748
		c19.174-19.178,48.926-23.108,72.331-9.556c1.913,1.104,2.568,3.552,1.46,5.461c-1.109,1.905-3.553,2.561-5.465,1.456
		c-20.275-11.745-46.053-8.33-62.674,8.291c-20.244,20.243-20.244,53.192,0,73.443c20.244,20.236,53.189,20.236,73.44,0
		c16.629-16.645,20.032-42.427,8.268-62.717c-1.109-1.913-0.461-4.356,1.452-5.465c1.92-1.101,4.356-0.449,5.465,1.452
		c13.576,23.421,9.657,53.192-9.532,72.382C286.513,321.862,271.166,327.686,255.825,327.702z"/>
	<path style="fill:#3A3847;" d="M255.817,299.753c-8.182,0-16.363-3.123-22.586-9.337c-12.46-12.476-12.46-32.747,0-45.206
		c7.19-7.202,17.066-10.508,27.152-9.057c2.187,0.316,3.701,2.342,3.389,4.528s-2.296,3.7-4.528,3.388
		c-7.549-1.105-14.966,1.386-20.36,6.792c-9.345,9.345-9.345,24.549,0,33.902c9.345,9.337,24.545,9.321,33.89,0
		c5.402-5.418,7.877-12.851,6.784-20.392c-0.312-2.183,1.202-4.204,3.381-4.524c2.193-0.273,4.216,1.202,4.528,3.388
		c1.459,10.052-1.835,19.951-9.041,27.181C272.188,296.63,264.006,299.753,255.817,299.753z"/>
	<path style="fill:#3A3847;" d="M307.78,483.653H203.854c-1.062,0-2.077-0.422-2.826-1.172l-15.989-15.988
		c-0.75-0.75-1.171-1.765-1.171-2.826v-55.96c0-2.218,1.788-3.997,3.997-3.997h135.903c2.21,0,3.997,1.779,3.997,3.997v55.96
		c0,1.062-0.422,2.076-1.171,2.826l-15.988,15.988C309.856,483.231,308.841,483.653,307.78,483.653z M205.509,475.658h100.616
		l13.646-13.646v-50.308H191.862v50.308L205.509,475.658z"/>
	<path style="fill:#3A3847;" d="M179.871,435.686c-2.115,0-3.88-1.654-3.989-3.794c-0.117-2.201,1.577-4.075,3.778-4.2
		l151.892-7.994c2.187-0.281,4.083,1.577,4.2,3.779c0.117,2.201-1.576,4.09-3.778,4.199l-151.892,7.994
		C180.011,435.686,179.941,435.686,179.871,435.686z"/>
	<path style="fill:#3A3847;" d="M179.871,459.67c-2.115,0-3.88-1.655-3.989-3.794c-0.117-2.202,1.577-4.075,3.778-4.2l151.892-7.994
		c2.187-0.266,4.083,1.577,4.2,3.778s-1.576,4.091-3.778,4.2l-151.892,7.994C180.011,459.67,179.941,459.67,179.871,459.67z"/>
	<path style="fill:#3A3847;" d="M323.768,411.704H187.865c-2.209,0-3.997-1.796-3.997-3.997v-24.78
		c-40.088-25.061-63.954-67.92-63.954-115.121c0-74.946,60.964-135.915,135.903-135.915c74.938,0,135.902,60.968,135.902,135.915
		c0,47.201-23.865,90.076-63.954,115.121v24.779C327.765,409.908,325.978,411.704,323.768,411.704z M191.862,403.71h127.909v-23.015
		c0-1.405,0.734-2.701,1.928-3.436c38.84-23.405,62.026-64.329,62.026-109.453c0-70.535-57.381-127.92-127.908-127.92
		c-70.528,0-127.909,57.385-127.909,127.92c0,45.124,23.187,86.048,62.026,109.469c1.194,0.719,1.928,2.015,1.928,3.42V403.71z"/>
	<path style="fill:#3A3847;" d="M255.817,499.641c-30.104,0-39.176-17.457-39.55-18.206c-0.984-1.968-0.187-4.372,1.788-5.355
		c1.968-0.999,4.356-0.203,5.348,1.765c0.351,0.655,7.627,13.803,32.415,13.803c24.88,0,32.117-13.257,32.414-13.818
		c1.022-1.937,3.419-2.717,5.371-1.718s2.74,3.372,1.765,5.324C294.992,482.184,285.921,499.641,255.817,499.641z"/>
	<path style="fill:#3A3847;" d="M83.947,271.803H3.997c-2.21,0-3.997-1.795-3.997-3.997c0-2.217,1.787-4.001,3.997-4.001h79.95
		c2.21,0,3.998,1.784,3.998,4.001C87.944,270.008,86.157,271.803,83.947,271.803z"/>
	<path style="fill:#3A3847;" d="M507.637,271.803h-79.943c-2.209,0-3.997-1.795-3.997-3.997c0-2.217,1.788-4.001,3.997-4.001h79.943
		c2.209,0,3.997,1.784,3.997,4.001C511.634,270.008,509.846,271.803,507.637,271.803z"/>
	<path style="fill:#3A3847;" d="M23.171,368.172c-1.569,0-3.061-0.938-3.693-2.467c-0.843-2.046,0.125-4.388,2.163-5.23
		l73.861-30.604c2.03-0.844,4.38,0.125,5.223,2.17c0.843,2.03-0.125,4.372-2.162,5.215L24.701,367.86
		C24.201,368.079,23.677,368.172,23.171,368.172z"/>
	<path style="fill:#3A3847;" d="M414.61,206.018c-1.569,0-3.061-0.929-3.693-2.467c-0.843-2.041,0.125-4.38,2.163-5.223
		l73.854-30.588c2.037-0.839,4.379,0.125,5.223,2.163c0.843,2.041-0.125,4.379-2.162,5.223l-73.854,30.587
		C415.64,205.921,415.117,206.018,414.61,206.018z"/>
	<path style="fill:#3A3847;" d="M77.756,449.864c-1.023,0-2.046-0.391-2.826-1.171c-1.562-1.562-1.562-4.091,0-5.652l56.53-56.538
		c1.562-1.561,4.091-1.561,5.652,0c1.561,1.562,1.561,4.092,0,5.652l-56.53,56.538C79.801,449.473,78.779,449.864,77.756,449.864z"
		/>
	<path style="fill:#3A3847;" d="M321.597,113.006c-0.515,0-1.03-0.097-1.529-0.304c-2.038-0.843-3.006-3.181-2.163-5.223
		l30.588-73.854c0.843-2.041,3.192-3.009,5.223-2.162c2.038,0.843,3.006,3.181,2.163,5.223l-30.588,73.854
		C324.65,112.078,323.16,113.006,321.597,113.006z"/>
	<path style="fill:#3A3847;" d="M255.825,99.922c-2.21,0-3.998-1.788-3.998-3.997V15.99c0-2.209,1.788-3.997,3.998-3.997
		c2.209,0,3.997,1.788,3.997,3.997v79.936C259.822,98.134,258.034,99.922,255.825,99.922z"/>
	<path style="fill:#3A3847;" d="M190.051,113.006c-1.569,0-3.061-0.929-3.693-2.467l-30.587-73.854
		c-0.843-2.042,0.125-4.38,2.162-5.223c2.022-0.843,4.38,0.121,5.223,2.162l30.587,73.854c0.843,2.042-0.125,4.38-2.162,5.223
		C191.082,112.909,190.559,113.006,190.051,113.006z"/>
	<path style="fill:#3A3847;" d="M433.877,449.864c-1.022,0-2.045-0.391-2.826-1.171l-56.537-56.538
		c-1.562-1.561-1.562-4.091,0-5.652s4.091-1.561,5.652,0l56.537,56.538c1.562,1.562,1.562,4.091,0,5.652
		C435.922,449.473,434.9,449.864,433.877,449.864z"/>
	<path style="fill:#3A3847;" d="M134.294,150.261c-1.023,0-2.045-0.39-2.826-1.171L74.946,92.568c-1.562-1.561-1.562-4.091,0-5.652
		c1.562-1.562,4.091-1.562,5.652,0l56.522,56.522c1.561,1.562,1.561,4.091,0,5.652C136.339,149.871,135.317,150.261,134.294,150.261
		z"/>
	<path style="fill:#3A3847;" d="M488.463,368.172c-0.516,0-1.03-0.094-1.53-0.313l-73.869-30.604
		c-2.038-0.843-3.006-3.185-2.163-5.215c0.844-2.045,3.193-3.029,5.224-2.17l73.869,30.604c2.037,0.843,3.005,3.185,2.162,5.23
		C491.515,367.235,490.025,368.172,488.463,368.172z"/>
	<path style="fill:#3A3847;" d="M97.04,206.018c-0.516,0-1.031-0.097-1.53-0.304l-73.854-30.587
		c-2.038-0.843-3.006-3.182-2.163-5.223c0.843-2.038,3.193-3.006,5.223-2.163l73.854,30.588c2.037,0.843,3.005,3.182,2.162,5.223
		C100.092,205.089,98.601,206.018,97.04,206.018z"/>
	<path style="fill:#3A3847;" d="M255.84,271.803c-1.023,0-2.046-0.391-2.826-1.171c-1.562-1.562-1.562-4.091,0-5.652L432.862,85.121
		c1.562-1.562,4.091-1.562,5.652,0c1.562,1.561,1.562,4.091,0,5.652l-179.849,179.86
		C257.885,271.413,256.863,271.803,255.84,271.803z"/>
	<path style="fill:#3A3847;" d="M384.732,142.876c-2.209,0-3.996-1.788-3.996-3.993c0-2.209,1.787-4.001,3.988-4.001l20.97-0.016
		l32.977-32.98l-11.687-2.006c-2.179-0.371-3.639-2.439-3.264-4.614c0.375-2.174,2.451-3.642,4.613-3.263l19.299,3.31
		c1.477,0.25,2.686,1.304,3.139,2.729s0.07,2.979-0.983,4.036l-39.612,39.612c-0.75,0.75-1.765,1.171-2.826,1.171L384.732,142.876
		L384.732,142.876z"/>
	<path style="fill:#3A3847;" d="M384.732,142.876L384.732,142.876c-2.209,0-3.996-1.792-3.996-3.997l0.008-22.625
		c0-1.062,0.421-2.077,1.17-2.826l39.551-39.55c1.054-1.058,2.615-1.433,4.028-0.983c1.421,0.448,2.475,1.651,2.732,3.118
		l3.372,19.236c0.383,2.175-1.069,4.247-3.248,4.63c-2.162,0.359-4.246-1.073-4.629-3.248l-2.045-11.663l-32.938,32.941
		l-0.008,20.969C388.73,141.088,386.934,142.876,384.732,142.876z"/>
</g>
<g>
</g>
<g>
</g>
<g>
</g>
<g>
</g>
<g>
</g>
<g>
</g>
<g>
</g>
<g>
</g>
<g>
</g>
<g>
</g>
<g>
</g>
<g>
</g>
<g>
</g>
<g>
</g>
<g>
</g>
</svg>
